<svg width="39" height="20" viewBox="0 0 39 20" fill="none" xmlns="http://www.w3.org/2000/svg">
<path d="M3.15616 1.94806H0V0.211417H8.36608V1.94806H5.20993V10.7823H3.15616V1.94806Z" fill="#6092F2"/>
<path d="M8.21542 3.26187H10.0578V4.51527L11.2659 3.26187H13.4102V4.95321H11.6736L10.2088 6.46333V10.7823H8.21542V3.26187Z" fill="#6092F2"/>
<path d="M13.7846 9.39297V7.67143L15.1739 6.28211H18.9945V5.33074L18.5264 4.8626H16.2612L15.8082 5.33074V5.75357H13.845V4.8928L15.4608 3.26187H19.3418L20.9577 4.8928V10.7823H19.1606V9.71009L18.0431 10.7823H15.1739L13.7846 9.39297ZM17.9072 9.24196L18.9945 8.19997V7.70163H16.1555L15.7478 8.10936V8.86442L16.1253 9.24196H17.9072Z" fill="#6092F2"/>
<path d="M22.5463 9.21175V4.8324L24.1017 3.26187H27.0917L27.9827 4.03203V0H29.9761V10.7823H28.1035V9.61949L26.9407 10.7823H24.1017L22.5463 9.21175ZM26.7595 9.09094L27.9827 7.83754V5.87438L26.9558 4.95321H25.1135L24.5396 5.54215V8.502L25.1135 9.09094H26.7595Z" fill="#6092F2"/>
<path d="M31.6306 9.24196V4.8324L33.186 3.26187H37.4295L39 4.8324V7.68653H33.624V8.65301L34.1072 9.15135H36.5687L37.0217 8.68321V8.29058H38.9849V9.27216L37.4899 10.7823H33.1558L31.6306 9.24196ZM37.0066 6.29721V5.42134L36.4932 4.8928H34.1374L33.624 5.42134V6.29721H37.0066Z" fill="#6092F2"/>
<path d="M15.9798 13.0021L21.4163 8.06397V6.99178L20.9179 6.49344H18.4715L17.9732 6.99178V8.06397H15.9194V6.37263L17.5504 4.7417H21.8391L23.4701 6.37263V8.66802L18.1091 13.44V13.591H23.5305V15.3126H15.9798V13.0021Z" fill="#123378"/>
<path d="M4.22803 9.27222H11.8693V11.0089H6.2818V13.6818H11.4313V15.3882H6.2818V18.1064H11.8693V19.8431H4.22803V9.27222Z" fill="#6092F2"/>
<path d="M13.0841 18.4538V16.7322L14.4734 15.3429H18.294V14.3915L17.8259 13.9234H15.5607L15.1076 14.3915V14.8144H13.1445V13.9536L14.7603 12.3227H18.6413L20.2572 13.9536V19.8431H18.4601V18.7709L17.3426 19.8431H14.4734L13.0841 18.4538ZM17.2067 18.3028L18.294 17.2608V16.7624H15.455L15.0472 17.1702V17.9252L15.4248 18.3028H17.2067Z" fill="#6092F2"/>
<path d="M21.9968 12.3227H23.8391V13.5761L25.0472 12.3227H27.1916V14.014H25.4549L23.9901 15.5241V19.8431H21.9968V12.3227Z" fill="#6092F2"/>
<path d="M28.1759 12.3227H30.0182V13.5761L31.2716 12.3227H33.7029L35.3792 13.9989V19.8431H33.3858V14.5425L32.8724 14.014H31.6038L30.1692 15.4637V19.8431H28.1759V12.3227Z" fill="#6092F2"/>
</svg>
