<svg width="190" height="138" viewBox="0 0 190 138" fill="none" xmlns="http://www.w3.org/2000/svg">
<path d="M235.376 7.95235L234.969 7.50768L234.448 7.80896L7.80252 138.663L7.28068 138.964L7.46246 139.538C10.3637 148.707 14.2969 157.704 19.3031 166.375C56.5133 230.825 138.925 252.907 203.375 215.697C267.825 178.487 289.907 96.0749 252.697 31.625C247.691 22.954 241.866 15.0493 235.376 7.95235ZM3.61699 124.34L3.8153 125.376L4.72861 124.849L224.021 -1.75999L224.935 -2.28729L224.137 -2.97692C220.274 -6.31613 216.242 -9.41422 212.066 -12.2647L211.677 -12.5306L211.268 -12.2948L1.98176 108.537L1.57338 108.773L1.60889 109.243C1.98957 114.285 2.65678 119.325 3.61699 124.34ZM1.24992 96.6771L1.2258 98.0036L2.3748 97.3403L201.375 -17.5527L202.524 -18.2161L201.363 -18.8585C189.9 -25.2016 177.594 -29.8275 164.869 -32.6222L164.584 -32.6846L164.333 -32.5392L7.91746 57.7671L7.66561 57.9125L7.57762 58.1897C3.63537 70.6073 1.48809 83.5782 1.24992 96.6771ZM147.665 -33.8858L149.732 -35.0794L147.354 -35.2826C120.849 -37.547 93.4081 -32.0054 68.625 -17.6969C43.842 -3.38843 25.3223 17.6055 14.0309 41.6914L13.0176 43.8529L15.085 42.6593L147.665 -33.8858Z" fill="url(#paint0_linear_925_1506)" stroke="#2761A6" stroke-width="1.5"/>
<defs>
<linearGradient id="paint0_linear_925_1506" x1="69" y1="-17.0474" x2="203" y2="215.047" gradientUnits="userSpaceOnUse">
<stop stop-color="#EDB1EE"/>
<stop offset="1" stop-color="#9AB5D5"/>
</linearGradient>
</defs>
</svg>
