<svg width="48" height="50" viewBox="0 0 48 50" fill="none" xmlns="http://www.w3.org/2000/svg">
<g id="SuperSkull">
<path id="Polygon 3" d="M26.25 1.72169C24.8577 0.91784 23.1423 0.91784 21.75 1.72169L4.96539 11.4123C3.57309 12.2161 2.71539 13.7017 2.71539 15.3094V34.6906C2.71539 36.2983 3.57309 37.7839 4.96539 38.5877L21.75 48.2783C23.1423 49.0822 24.8577 49.0822 26.25 48.2783L43.0346 38.5877C44.4269 37.7839 45.2846 36.2983 45.2846 34.6906V15.3094C45.2846 13.7017 44.4269 12.2161 43.0346 11.4123L26.25 1.72169Z" fill="url(#paint0_linear_968_871)" stroke="white"/>
<g id="Mask group">
<mask id="mask0_968_871" style="mask-type:alpha" maskUnits="userSpaceOnUse" x="3" y="1" width="42" height="48">
<path id="Polygon 4" d="M22 2.1547C23.2376 1.44017 24.7624 1.44017 26 2.1547L42.7846 11.8453C44.0222 12.5598 44.7846 13.8803 44.7846 15.3094V34.6906C44.7846 36.1197 44.0222 37.4402 42.7846 38.1547L26 47.8453C24.7624 48.5598 23.2376 48.5598 22 47.8453L5.21539 38.1547C3.97779 37.4402 3.21539 36.1197 3.21539 34.6906V15.3094C3.21539 13.8803 3.97779 12.5598 5.21539 11.8453L22 2.1547Z" fill="#D9D9D9"/>
</mask>
<g mask="url(#mask0_968_871)">
<path id="Rectangle 3" d="M22.1333 35.6C22.1333 34.4832 23.0387 33.5778 24.1555 33.5778C25.2724 33.5778 26.1777 34.4832 26.1777 35.6V58.9111H22.1333V35.6Z" fill="white"/>
<path id="Rectangle 2" d="M5.83325 52.1556C5.83325 45.5588 11.181 40.2111 17.7777 40.2111H30.2666C36.8633 40.2111 42.211 45.5588 42.211 52.1556V64.1H5.83325V52.1556Z" fill="#BDBFC1" stroke="white"/>
</g>
</g>
<g id="Group 9027">
<path id="Vector" d="M16.0715 32.373V32.3727C16.0717 32.3137 16.0518 32.255 16.0129 32.2045C15.9739 32.1539 15.9173 32.1138 15.8498 32.0911C15.8497 32.0911 15.8497 32.091 15.8497 32.091L15.878 32.0068L16.0715 32.373ZM16.0715 32.373L16.0715 33.8064M16.0715 32.373H16.1604V33.8065M16.1604 33.8065L16.0715 33.8064M16.1604 33.8065H16.0715M16.1604 33.8065C16.1595 34.4278 16.3644 35.0353 16.7493 35.5522C17.1342 36.0691 17.6817 36.472 18.3225 36.7101C18.9633 36.9482 19.6686 37.0107 20.3491 36.8896C21.0295 36.7685 21.6546 36.4694 22.1451 36.03M16.0715 33.8064L16.0715 33.8065M16.0715 33.8064L16.0715 33.8065M16.0715 33.8065L31.3694 32.0911M22.1451 36.03L22.2044 36.0962C22.2044 36.0962 22.2044 36.0962 22.2044 36.0962C22.257 36.0491 22.308 36.0004 22.3572 35.9503C22.4635 36.1406 22.6213 36.3035 22.8159 36.4239C23.0499 36.5688 23.3268 36.6459 23.6096 36.6459C23.8924 36.6459 24.1693 36.5688 24.4033 36.4239C24.5979 36.3035 24.7557 36.1406 24.862 35.9503C25.3222 36.4171 25.9231 36.7542 26.5922 36.9209C27.3054 37.0985 28.0624 37.0743 28.7597 36.8512C29.457 36.6281 30.0618 36.2167 30.49 35.6719C30.9183 35.1269 31.1486 34.4753 31.1477 33.8064M22.1451 36.03C22.2037 35.9775 22.2603 35.9229 22.3146 35.8667L22.1451 36.03ZM31.1477 33.8064V33.8065H31.0588L31.1477 33.8064ZM31.1477 33.8064L31.1477 32.373L31.1477 32.3727C31.1475 32.3137 31.1674 32.255 31.2063 32.2045C31.2453 32.1539 31.3019 32.1138 31.3694 32.0911M31.3694 32.0911C31.3695 32.0911 31.3695 32.091 31.3695 32.091L31.3412 32.0068L31.3694 32.0911Z" fill="white" stroke="white" stroke-width="0.177778"/>
<path id="Subtract" d="M9.41648 14.6544V14.4392V13.3834C9.41648 11.0802 10.48 8.87468 12.3675 7.25081C14.2545 5.62729 16.8113 4.717 19.4751 4.717H29.3193C31.983 4.717 34.5399 5.62729 36.4269 7.25081C38.3143 8.87468 39.3779 11.0802 39.3779 13.3834V22.4533C39.3778 24.4074 38.6841 26.3134 37.3919 27.9163C36.0999 29.519 34.2715 30.7423 32.1526 31.4244C32.0846 31.4464 32.0281 31.4851 31.9895 31.5332C31.951 31.5812 31.9318 31.6363 31.932 31.6912L31.932 31.6915L31.932 33.0681V33.0682H31.8431C31.844 33.6906 31.621 34.298 31.2047 34.8069C30.7883 35.3159 30.1991 35.7015 29.5179 35.9109C28.8367 36.1203 28.0968 36.1431 27.3999 35.9763C26.7362 35.8174 26.1425 35.494 25.6921 35.0472L9.41648 14.6544ZM9.41648 14.6544L9.56836 14.5019L15.794 8.24908L9.41648 14.6544ZM23.1456 35.1294C23.2522 35.3131 23.4105 35.47 23.6051 35.5857C23.8389 35.7248 24.1152 35.7986 24.3972 35.7986C24.6792 35.7986 24.9554 35.7248 25.1892 35.5857C25.3838 35.47 25.5421 35.3131 25.6488 35.1293C26.1091 35.5785 26.7103 35.9026 27.3792 36.0628L23.1456 35.1294ZM23.1456 35.1294C23.0959 35.1779 23.0444 35.2253 22.9913 35.271C22.488 35.7042 21.848 35.9979 21.1531 36.1167C20.4581 36.2355 19.7376 36.1743 19.0825 35.9405C18.4274 35.7066 17.8656 35.3101 17.4697 34.7991C17.0735 34.288 16.8615 33.6856 16.8624 33.0682C16.8624 33.0682 16.8624 33.0681 16.8624 33.0681M23.1456 35.1294L16.9513 33.0682L16.8624 33.0681M16.8624 33.0681L16.8624 31.6915V31.6912C16.8626 31.6363 16.8434 31.5812 16.8049 31.5332C16.7662 31.4851 16.7098 31.4464 16.6417 31.4244L16.8624 33.0681ZM31.8431 31.6915C31.8428 31.6151 31.8697 31.5405 31.9201 31.4776C31.9706 31.4147 32.0422 31.3667 32.1253 31.3398L31.8431 31.6915Z" fill="#BABABA" stroke="white" stroke-width="0.177778"/>
<path id="Vector_2" d="M18.7693 30.0365L18.7693 30.0365C18.8578 30.0669 18.9352 30.1219 18.9904 30.1952C19.0456 30.2686 19.0757 30.3566 19.0754 30.4476M18.7693 30.0365L18.9866 30.4475M18.7693 30.0365C16.9506 29.4122 15.3844 28.2939 14.2793 26.8322C13.1742 25.3707 12.5827 23.6354 12.5827 21.8586L12.5827 13.4261C12.5827 11.3373 13.4872 9.33229 15.1001 7.85271C16.7134 6.37289 18.9029 5.54037 21.1873 5.54037L29.7714 5.54037C32.0558 5.54037 34.2453 6.37289 35.8586 7.85271C37.4715 9.33229 38.376 11.3373 38.376 13.4261V21.8586C38.376 23.6354 37.7845 25.3707 36.6794 26.8322C35.5743 28.2939 34.0081 29.4122 32.1894 30.0365L32.1893 30.0365C32.1009 30.0669 32.0235 30.1219 31.9683 30.1952C31.913 30.2687 31.8829 30.3568 31.8832 30.4479M18.7693 30.0365L32.2183 30.1206C32.1458 30.1455 32.0833 30.1902 32.0393 30.2487C31.9953 30.3071 31.9719 30.3765 31.9721 30.4475M19.0754 30.4476C19.0754 30.4477 19.0754 30.4478 19.0754 30.4479L18.9866 30.4475M19.0754 30.4476V30.4475H18.9866M19.0754 30.4476V31.7275V31.7277C19.074 32.2636 19.2461 32.7886 19.571 33.236C19.896 33.6835 20.3594 34.0335 20.9033 34.2403C21.4472 34.4472 22.0463 34.5013 22.6241 34.3955C23.202 34.2897 23.7316 34.0289 24.1461 33.6474L24.1462 33.6473C24.216 33.5832 24.2827 33.5153 24.3453 33.445L24.4398 33.3389L24.4938 33.4703C24.5687 33.652 24.7026 33.8099 24.8793 33.9219C25.056 34.034 25.2665 34.0944 25.4827 34.0944C25.699 34.0944 25.9095 34.034 26.0862 33.9219C26.2628 33.8099 26.3968 33.652 26.4716 33.4703L26.5256 33.3392L26.6201 33.4449C27.0072 33.878 27.5317 34.1918 28.1225 34.342C28.7133 34.4922 29.3403 34.4712 29.9175 34.2819C30.4946 34.0927 30.9925 33.7449 31.3439 33.2874C31.6952 32.83 31.8832 32.2851 31.8832 31.7275V30.4479M18.9866 30.4475V31.7275C18.9851 32.2828 19.1635 32.826 19.4991 33.2882C19.8347 33.7504 20.3125 34.1107 20.8717 34.3234C21.4309 34.5361 22.0465 34.5916 22.6401 34.4829C23.2338 34.3742 23.7789 34.1061 24.2063 33.7128C24.2544 33.6686 24.301 33.6228 24.3458 33.5756C24.3401 33.5632 24.3347 33.5506 24.3294 33.538L24.4116 33.5041L24.478 33.5633C24.4696 33.5727 24.4611 33.5821 24.4526 33.5914C24.5385 33.7539 24.6689 33.8937 24.8317 33.997C25.023 34.1183 25.2501 34.1833 25.4827 34.1833C25.7154 34.1833 25.9424 34.1183 26.1338 33.997C26.2966 33.8937 26.427 33.7538 26.5129 33.5914C26.5044 33.5821 26.496 33.5728 26.4876 33.5634L26.5538 33.5041L26.636 33.538C26.6308 33.5506 26.6254 33.5631 26.6198 33.5754C27.0118 33.9854 27.5263 34.2821 28.1006 34.4281C28.7077 34.5825 29.3519 34.5609 29.9452 34.3664C30.5384 34.1719 31.0515 33.8139 31.4144 33.3415C31.7773 32.8691 31.9721 32.3054 31.9721 31.7275V30.4475M31.8832 30.4479L31.9721 30.4475M31.8832 30.4479V30.4475H31.9721" fill="url(#paint1_linear_968_871)" stroke="white" stroke-width="0.177778"/>
<path id="Vector_3" d="M22.6363 9.9053C20.793 9.9053 19.3001 11.3856 19.3001 13.21L19.3001 19.62C19.3001 21.4444 20.793 22.9247 22.6363 22.9247C24.4796 22.9247 25.9725 21.4444 25.9725 19.62L25.9725 13.21C25.9725 11.3856 24.4796 9.9053 22.6363 9.9053Z" fill="#FFFBF4" stroke="white" stroke-width="0.177778"/>
<path id="Vector_4" d="M31.3896 9.9053C29.5463 9.9053 28.0533 11.3856 28.0533 13.21L28.0533 19.62C28.0533 21.4444 29.5463 22.9247 31.3896 22.9247C33.2329 22.9247 34.7258 21.4444 34.7258 19.62V13.21C34.7258 11.3856 33.2329 9.9053 31.3896 9.9053Z" fill="#FFFBF4" stroke="white" stroke-width="0.177778"/>
<path id="Vector_5" d="M22.6363 9.96641C20.8262 9.96641 19.3612 11.4199 19.3612 13.21L19.3612 19.62C19.3612 21.4101 20.8262 22.8636 22.6363 22.8636C24.4464 22.8636 25.9114 21.4101 25.9114 19.62L25.9114 13.21C25.9114 11.4199 24.4464 9.96641 22.6363 9.96641Z" fill="url(#paint2_linear_968_871)" stroke="white" stroke-width="0.3"/>
<path id="Vector_6" d="M31.3896 9.96641C29.5795 9.96641 28.1145 11.4199 28.1145 13.21L28.1145 19.62C28.1145 21.4101 29.5795 22.8636 31.3896 22.8636C33.1997 22.8636 34.6647 21.4101 34.6647 19.62V13.21C34.6647 11.4199 33.1997 9.96641 31.3896 9.96641Z" fill="url(#paint3_linear_968_871)" stroke="white" stroke-width="0.3"/>
<path id="Vector_7" d="M27.6355 23.6372L27.6355 23.6372C27.4825 23.3271 27.1576 23.164 26.8186 23.164C26.4795 23.164 26.1546 23.3271 26.0017 23.6372L26.0016 23.6372L25.0667 25.5309C25.0667 25.531 25.0666 25.5311 25.0665 25.5313C24.8249 26.0297 25.2169 26.6342 25.8883 26.6342H27.7531C28.422 26.6342 28.8158 26.0292 28.5708 25.5316L27.6355 23.6372Z" fill="white" stroke="white" stroke-width="0.3"/>
</g>
</g>
<defs>
<linearGradient id="paint0_linear_968_871" x1="24" y1="1" x2="24" y2="49" gradientUnits="userSpaceOnUse">
<stop stop-color="#DADDDF"/>
<stop offset="1" stop-color="#737373"/>
</linearGradient>
<linearGradient id="paint1_linear_968_871" x1="25.4793" y1="5.45148" x2="25.4793" y2="34.5371" gradientUnits="userSpaceOnUse">
<stop stop-color="#E7EAF0"/>
<stop offset="1" stop-color="#B7B7B7"/>
</linearGradient>
<linearGradient id="paint2_linear_968_871" x1="22.6363" y1="9.81641" x2="22.6363" y2="23.0136" gradientUnits="userSpaceOnUse">
<stop stop-color="#F0C8EA"/>
<stop offset="1" stop-color="#82BCDC"/>
</linearGradient>
<linearGradient id="paint3_linear_968_871" x1="31.3896" y1="9.81641" x2="31.3896" y2="23.0136" gradientUnits="userSpaceOnUse">
<stop stop-color="#F0C8EA"/>
<stop offset="1" stop-color="#82BCDC"/>
</linearGradient>
</defs>
</svg>
